#!OML:ASF I:\salsa\salsa 7_09\Patient 1\Session 1\dancermale.ASF
:FULLY-SPECIFIED
:DEGREES
1268
root 2.11894 17.5233 -6.01747 13.9096 6.32067 720.745
lowerback -4.32019 -4.8279 4.94941
upperback -2.56864 -6.61122 2.87049
thorax -0.455586 -3.34204 -0.0397061
lowerneck -4.39204 8.40954 5.77573
upperneck 22.6328 13.0169 -9.24087
head 8.76095 5.82194 -2.85081
rclavicle -6.06293e-014 1.27222e-014
rhumerus -26.8995 -23.9921 -56.7157
rradius 87.3435
rwrist -38.5635
rhand -38.4855 2.82297
rfingers 7.12502
rthumb -11.5075 -26.8412
lclavicle -6.06293e-014 1.27222e-014
lhumerus -23.9113 -28.8959 108.237
lradius 79.3612
lwrist 58.7406
lhand -2.2211 57.5837
lfingers 7.12502
lthumb 23.4613 -993.827
rfemur -22.7732 -2.69168 17.0649
rtibia 22.9546
rfoot -15.098 -18.3083
rtoes 6.84285
lfemur -12.1374 4.84858 -24.5369
ltibia 17.4629
lfoot -20.336 10.4234
ltoes -9.3912
1269
root 2.13814 17.5066 -6.13183 13.9503 6.75039 720.815
lowerback -4.20081 -4.93949 4.70113
upperback -2.62256 -6.74102 2.82985
thorax -0.55805 -3.40725 0.0645873
lowerneck -4.32968 8.54631 5.91727
upperneck 22.6423 13.2105 -9.29807
head 8.78416 5.92143 -2.87336
rclavicle -2.08724e-014 -7.95139e-015
rhumerus -27.644 -23.242 -57.875
rradius 88.9276
rwrist -37.9558
rhand -41.0444 3.17421
rfingers 7.12502
rthumb -13.9744 -26.3361
lclavicle -2.08724e-014 -7.95139e-015
lhumerus -22.3193 -28.7466 107.784
lradius 77.7868
lwrist 58.6451
lhand -2.19357 57.3491
lfingers 7.12502
lthumb 23.4877 -994.065
rfemur -24.4127 -3.93255 17.1313
rtibia 25.196
rfoot -14.809 -18.1774
rtoes 6.55592
lfemur -12.103 4.81612 -24.5853
ltibia 16.592
lfoot -20.492 9.27989
ltoes -8.15663
1270
root 2.14834 17.4878 -6.24919 13.7835 7.0398 720.749
lowerback -3.88759 -5.0049 4.54025
upperback -2.57441 -6.80491 2.77068
thorax -0.672704 -3.43921 0.117713
lowerneck -4.24212 8.71569 6.15156
upperneck 22.5469 13.4484 -9.43877
head 8.78386 6.04571 -2.93468
rclavicle -2.04748e-014 9.54166e-015
rhumerus -28.4724 -22.4227 -59.1844
rradius 90.6218
rwrist -37.0771
rhand -43.7506 4.09098
rfingers 7.12502
rthumb -16.5811 -25.2207
lclavicle -2.04748e-014 9.54166e-015
lhumerus -20.5798 -28.4054 107.361
lradius 75.9732
lwrist 58.7975
lhand -2.65685 57.3068
lfingers 7.12502
lthumb 23.0433 -994.051
rfemur -25.9717 -4.57216 17.262
rtibia 27.5961
rfoot -13.9876 -18.0728
rtoes 5.62185
lfemur -12.2268 4.68426 -24.4992
ltibia 16.2452
lfoot -20.6626 8.41198
ltoes -4.31519
1271
root 2.14208 17.46 -6.38209 13.5127 7.12145 720.691
lowerback -3.29446 -5.04832 4.20626
upperback -2.48746 -6.82137 2.68372
thorax -0.884388 -3.44652 0.262679
lowerneck -4.19752 8.91637 6.32946
upperneck 22.416 13.6987 -9.44119
head 8.76702 6.1824 -2.93691
rclavicle -3.08116e-015 -2.3059e-014
rhumerus -29.2748 -21.4313 -60.7713
rradius 92.3185
rwrist -35.7268
rhand -46.0491 4.3442
rfingers 7.12502
rthumb -18.7929 -24.768
lclavicle -3.08116e-015 -2.3059e-014
lhumerus -18.7876 -27.853 106.91
lradius 73.9076
lwrist 58.8035
lhand -3.04544 57.2655
lfingers 7.12502
lthumb 22.6704 -994.046
rfemur -27.789 -4.34448 17.2068
rtibia 30.5662
rfoot -12.8335 -17.918
rtoes 4.52837
lfemur -12.8419 4.43661 -24.4612
ltibia 16.913
lfoot -20.8659 8.06966
ltoes -1.88487
1272
root 2.13029 17.4312 -6.51779 13.4966 6.74104 720.577
lowerback -2.94634 -4.95999 3.86424
upperback -2.44515 -6.67901 2.61418
thorax -0.999275 -3.37304 0.410057
lowerneck -4.0307 9.15597 6.31373
upperneck 22.0838 13.9944 -9.3856
head 8.64456 6.34031 -2.89088
rclavicle -6.26172e-015 2.14687e-014
rhumerus -30.076 -20.0585 -62.5173
rradius 94.011
rwrist -34.2112
rhand -47.7218 3.23675
rfingers 7.12502
rthumb -20.401 -25.7116
lclavicle -6.26172e-015 2.14687e-014
lhumerus -17.0068 -26.9769 106.574
lradius 71.5845
lwrist 58.4502
lhand -3.25814 57.1255
lfingers 7.12502
lthumb 22.4662 -994.161
rfemur -30.2933 -3.21269 17.0094
rtibia 34.2044
rfoot -11.7283 -17.5582
rtoes 4.6145
lfemur -14.173 4.14687 -24.4845
ltibia 18.4868
lfoot -21.0813 8.51447
ltoes -3.67775
1273
root 2.11379 17.3977 -6.64777 13.7575 6.08683 720.626
lowerback -3.05195 -4.73457 3.37997
upperback -2.39173 -6.37861 2.42817
thorax -0.846112 -3.21662 0.473754
lowerneck -3.81226 9.36108 6.31422
upperneck 21.6383 14.2227 -9.30224
head 8.46724 6.47571 -2.85026
rclavicle 9.34288e-015 4.77083e-015
rhumerus -31.1168 -18.5781 -64.2953
rradius 95.7154
rwrist -32.6664
rhand -49.4613 2.58276
rfingers 7.12502
rthumb -22.072 -26.1776
lclavicle 9.34288e-015 4.77083e-015
lhumerus -15.2602 -26.0486 106.351
lradius 69.1158
lwrist 57.983
lhand -3.60307 56.9806
lfingers 7.12502
lthumb 22.1351 -994.266
rfemur -33.1802 -1.49227 16.4284
rtibia 38.1039
rfoot -10.7572 -16.9343
rtoes 6.25122
lfemur -16.0361 3.90829 -24.75
ltibia 20.6362
lfoot -21.4328 9.32247
ltoes -7.30282
1274
root 2.09294 17.3623 -6.77114 13.933 5.37785 720.722
lowerback -3.16076 -4.47474 2.90989
upperback -2.32776 -6.03107 2.13401
thorax -0.69603 -3.03786 0.422907
lowerneck -3.68447 9.53358 6.50302
upperneck 21.4083 14.3916 -9.15844
head 8.3846 6.5925 -2.82078
rclavicle 2.89232e-014 -1.11319e-014
rhumerus -32.4639 -16.9752 -66.1213
rradius 97.4876
rwrist -31.2314
rhand -51.291 3.13361
rfingers 7.12502
rthumb -23.8277 -25.4086
lclavicle 2.89232e-014 -1.11319e-014
lhumerus -13.6741 -24.9585 106.183
lradius 66.5461
lwrist 57.2756
lhand -4.02597 56.9196
lfingers 7.12502
lthumb 21.729 -994.28
rfemur -35.8313 0.379854 15.7018
rtibia 42.2178
rfoot -10.251 -15.7751
rtoes 7.50154
lfemur -17.8949 3.79871 -25.0506
ltibia 22.9798
lfoot -22.0211 10.0307
ltoes -8.46527
1275
root 2.06171 17.337 -6.87859 13.4906 5.24162 720.865
lowerback -2.73276 -4.41616 2.48883
upperback -2.17678 -5.93267 1.781
thorax -0.771906 -2.98594 0.324893
lowerneck -3.60133 9.66056 6.85953
upperneck 21.4761 14.5226 -9.07208
head 8.42546 6.68859 -2.83625
rclavicle -3.14577e-014 -1.66979e-014
rhumerus -34.0083 -15.0845 -68.0155
rradius 99.2087
rwrist -29.6368
rhand -52.9861 3.90132
rfingers 7.12502
rthumb -25.4524 -24.4192
lclavicle -3.14577e-014 -1.66979e-014
lhumerus -12.2654 -23.6235 106.165
lradius 63.7533
lwrist 56.0806
lhand -4.14459 56.8156
lfingers 7.12502
lthumb 21.6151 -994.371
rfemur -37.254 1.88145 15.095
rtibia 46.3399
rfoot -10.4376 -14.6507
rtoes 6.22779
lfemur -18.9164 3.60146 -25.1935
ltibia 25.1051
lfoot -22.6763 10.3176
ltoes -7.7899
1276
root 2.02362 17.3067 -6.98067 12.9998 5.23632 720.951
lowerback -2.28612 -4.34885 2.22438
upperback -2.06745 -5.8275 1.38419
thorax -0.921795 -2.93332 0.100596
lowerneck -3.38144 9.74963 7.35003
upperneck 21.5413 14.6306 -9.149
head 8.46239 6.77559 -2.93599
rclavicle 3.69739e-014 -1.47101e-014
rhumerus -35.5697 -13.09 -70.0373
rradius 100.648
rwrist -27.5635
rhand -54.6339 4.27541
rfingers 7.12502
rthumb -27.0299 -23.8103
lclavicle 3.69739e-014 -1.47101e-014
lhumerus -10.9741 -22.1835 106.31
lradius 60.7292
lwrist 54.6404
lhand -3.77028 56.543
lfingers 7.12502
lthumb 21.9745 -994.685
rfemur -38.3695 3.28635 14.6891
rtibia 50.692
rfoot -11.115 -13.9941
rtoes 5.6663
lfemur -19.6572 3.56505 -25.2272
ltibia 26.7772
lfoot -23.0501 10.5356
ltoes -8.04859
1277
root 1.98075 17.2733 -7.07764 12.5461 5.29375 720.995
lowerback -1.92104 -4.31024 2.01296
upperback -2.01472 -5.76559 1.05068
thorax -1.08363 -2.90285 -0.0934203
lowerneck -3.12728 9.90668 7.71667
upperneck 21.6837 14.8471 -9.17054
head 8.51689 6.90854 -2.9872
rclavicle -1.13059e-014 1.98785e-015
rhumerus -37.1783 -10.9472 -72.1107
rradius 102.042
rwrist -25.4418
rhand -56.148 4.39494
rfingers 7.12502
rthumb -28.4777 -23.4574
lclavicle -1.13059e-014 1.98785e-015
lhumerus -9.81534 -20.2372 106.691
lradius 57.6057
lwrist 52.9776
lhand -3.47569 56.3387
lfingers 7.12502
lthumb 22.2574 -994.923
rfemur -39.1958 4.6762 14.4076
rtibia 54.9558
rfoot -11.5494 -13.9307
rtoes 5.54168
lfemur -20.0982 3.52753 -25.1688
ltibia 27.8188
lfoot -23.1714 10.5516
ltoes -8.28
